<?xml version="1.0" encoding="UTF-8" standalone="no"?>
<!-- Created with Inkscape (http://www.inkscape.org/) -->

<svg
   width="140"
   height="140"
   viewBox="0 0 37.041667 37.041667"
   version="1.1"
   id="svg1"
   inkscape:version="1.4.2 (f4327f4, 2025-05-13)"
   sodipodi:docname="mouse-favicon.svg"
   inkscape:export-filename="mouse-favicon-48.png"
   inkscape:export-xdpi="32.914288"
   inkscape:export-ydpi="32.914288"
   xmlns:inkscape="http://www.inkscape.org/namespaces/inkscape"
   xmlns:sodipodi="http://sodipodi.sourceforge.net/DTD/sodipodi-0.dtd"
   xmlns="http://www.w3.org/2000/svg"
   xmlns:svg="http://www.w3.org/2000/svg">
  <sodipodi:namedview
     id="namedview1"
     pagecolor="#ffffff"
     bordercolor="#000000"
     borderopacity="0.25"
     inkscape:showpageshadow="2"
     inkscape:pageopacity="0.0"
     inkscape:pagecheckerboard="0"
     inkscape:deskcolor="#d1d1d1"
     inkscape:document-units="mm"
     inkscape:zoom="2.3358165"
     inkscape:cx="-65.287663"
     inkscape:cy="133.57214"
     inkscape:window-width="1119"
     inkscape:window-height="1224"
     inkscape:window-x="956"
     inkscape:window-y="1164"
     inkscape:window-maximized="0"
     inkscape:current-layer="layer1" />
  <defs
     id="defs1" />
  <g
     inkscape:label="Layer 1"
     inkscape:groupmode="layer"
     id="layer1"
     transform="translate(-93.397916,-83.872918)">
    <g
       id="g1"
       transform="matrix(0.46894133,0,0,0.46894133,49.599773,51.85838)">
      <ellipse
         style="display:inline;fill:#ffffff;stroke:#241f31;stroke-width:1.58152;stroke-dasharray:none"
         id="path63"
         cx="107.98395"
         cy="98.607285"
         rx="13.795272"
         ry="13.943606"
         inkscape:export-filename="mouse-favicon-140.png"
         inkscape:export-xdpi="74.418564"
         inkscape:export-ydpi="74.418564" />
      <ellipse
         style="display:inline;fill:#ffffff;stroke:#241f31;stroke-width:1.58152;stroke-dasharray:none"
         id="ellipse63"
         cx="157.80186"
         cy="98.607285"
         rx="13.795272"
         ry="13.943606" />
      <path
         id="ellipse64"
         style="display:inline;fill:#ffffff;stroke:#241f31;stroke-width:1.76751"
         d="m 156.94088,116.00659 c 0,9.87512 -7.43615,14.62436 -23.74639,14.76258 -13.53898,0.11473 -24.3884,-2.43429 -24.73846,-14.76258 0,-9.87513 9.13612,-21.707038 24.59674,-21.707038 13.19305,0 23.88811,11.831908 23.88811,21.707038 z"
         sodipodi:nodetypes="sssss" />
      <ellipse
         style="display:inline;fill:none;stroke:#241f31;stroke-width:1.18614;stroke-dasharray:none"
         id="ellipse1"
         cx="121.12952"
         cy="114.05515"
         rx="3.8515439"
         ry="3.4676917" />
      <path
         d="m 131.94879,113.12424 c -0.60098,0.26886 -0.76704,1.08334 -0.32421,1.58152 0.30839,0.36376 0.34793,0.49028 0.22932,0.78286 -0.15025,0.34793 -0.48237,0.64051 -0.90938,0.80657 -0.45073,0.17397 -0.77494,0.0712 -1.27313,-0.39538 -0.25304,-0.23723 -0.45863,-0.35584 -0.68005,-0.39538 -0.43492,-0.0633 -0.54562,0.0712 -0.47445,0.60889 0.13443,0.97263 0.90937,1.57361 2.04016,1.57361 0.53771,0 0.90146,-0.14233 1.29685,-0.5219 0.49818,-0.45864 0.49818,-0.45864 1.1466,-0.0474 0.91728,0.59308 1.43128,0.69587 2.23785,0.45074 0.5219,-0.15815 0.86984,-0.44283 1.15451,-0.9331 0.29259,-0.51399 0.3084,-0.90938 0.0554,-1.1466 -0.31631,-0.30049 -0.56935,-0.22932 -1.04381,0.27676 -0.42701,0.45865 -0.42701,0.45865 -0.86193,0.45074 -0.37956,-0.008 -0.49027,-0.0554 -0.79076,-0.29258 -0.18978,-0.15816 -0.38747,-0.40329 -0.45073,-0.53772 -0.0949,-0.23723 -0.087,-0.28467 0.11071,-0.64052 0.26886,-0.48236 0.26886,-0.81448 0.008,-1.20195 -0.32421,-0.46655 -0.95682,-0.64843 -1.47082,-0.41911 z"
         id="path7"
         style="display:inline;fill:#000000;stroke:none;stroke-width:0.00790762" />
      <path
         d="m 149.8358,115.03789 c -0.11071,0.0553 -0.29259,0.12652 -0.4112,0.15024 -0.1107,0.0237 -0.3163,0.14234 -0.45073,0.25304 -0.22142,0.18188 -0.24514,0.24514 -0.24514,0.66424 0,0.34794 0.0316,0.46655 0.12652,0.50609 0.24514,0.0949 2.58579,-0.0395 2.91791,-0.16606 0.37166,-0.13443 0.43492,-0.21351 0.43492,-0.53772 0,-0.30049 -0.22141,-0.64051 -0.54563,-0.8382 -0.3163,-0.18979 -1.51035,-0.21351 -1.82665,-0.0316 z"
         id="path8"
         style="display:inline;fill:#000000;stroke:none;stroke-width:0.00790762" />
      <path
         d="m 148.24637,117.97952 c -0.15816,0.0395 -0.3084,0.35584 -0.3084,0.64842 0,0.47445 0.3084,0.73541 1.59734,1.36802 0.0791,0.0316 0.22141,0.0633 0.32421,0.0633 0.1028,0 0.22141,0.0395 0.27677,0.0949 0.0474,0.0474 0.26095,0.11861 0.46655,0.15815 0.20559,0.0395 0.48236,0.0949 0.60097,0.11861 0.49027,0.0949 1.32057,-0.42701 1.32057,-0.8303 0,-0.15024 -0.29258,-0.45864 -0.63261,-0.67214 -0.18187,-0.11862 -1.30475,-0.50609 -2.33274,-0.79867 -0.4191,-0.12652 -1.09916,-0.19769 -1.31266,-0.15024 z"
         id="path10"
         style="display:inline;fill:#000000;stroke:none;stroke-width:0.00790762" />
      <path
         d="m 115.03442,118.14558 c -0.15025,0.0712 -0.55354,0.25304 -0.88566,0.40328 -1.05171,0.46655 -1.43918,0.68006 -1.46291,0.81449 -0.0316,0.17396 0.44283,0.69587 0.75123,0.82239 0.36375,0.15815 0.6247,0.14233 1.53407,-0.0949 0.97264,-0.25305 1.455,-0.45864 1.70805,-0.7275 0.15024,-0.15816 0.18187,-0.28468 0.18187,-0.68006 0,-0.27676 -0.0395,-0.52981 -0.0949,-0.58516 -0.15024,-0.15025 -1.38383,-0.11071 -1.73176,0.0474 z"
         id="path11"
         style="display:inline;fill:#000000;stroke:none;stroke-width:0.00790762" />
      <path
         d="m 112.82819,115.03789 c -0.11071,0.0553 -0.29258,0.12652 -0.41119,0.15024 -0.11071,0.0237 -0.31631,0.14234 -0.45074,0.25304 -0.22141,0.18188 -0.24513,0.24514 -0.24513,0.66424 0,0.34794 0.0316,0.46655 0.12652,0.50609 0.24514,0.0949 2.58579,-0.0395 2.91791,-0.16606 0.37165,-0.13443 0.43492,-0.21351 0.43492,-0.53772 0,-0.30049 -0.22142,-0.64051 -0.54563,-0.8382 -0.31631,-0.18979 -1.51035,-0.21351 -1.82666,-0.0316 z"
         id="path53"
         style="display:inline;fill:#000000;stroke:none;stroke-width:0.00790762" />
      <path
         d="m 120.14273,110.68079 c -1.12288,0.4191 -1.81084,1.01218 -2.26948,1.96109 -0.28468,0.57725 -0.30049,0.64842 -0.30049,1.38383 0,1.16242 0.33212,1.90573 1.19404,2.65696 0.84612,0.7354 2.15087,1.13078 3.06025,0.92519 0.86193,-0.19769 1.74758,-0.71959 2.25367,-1.32848 1.12288,-1.34429 1.09125,-3.25003 -0.0712,-4.58641 -0.90938,-1.04381 -2.60951,-1.48663 -3.86682,-1.01218 z m 0.0949,0.91728 c 0.12652,0.24514 0.13443,0.84612 0.0158,1.17824 -0.17396,0.49027 -0.66423,0.54562 -1.06752,0.11861 -0.43492,-0.45073 -0.33212,-0.92519 0.27676,-1.34429 0.34794,-0.23723 0.64052,-0.22141 0.77495,0.0474 z"
         id="path54"
         style="display:inline;fill:#000000;stroke:none;stroke-width:0.00790762" />
      <ellipse
         style="display:inline;fill:none;stroke:#241f31;stroke-width:1.18614;stroke-dasharray:none"
         id="ellipse55"
         cx="142.95453"
         cy="114.05515"
         rx="3.8515439"
         ry="3.4676917" />
      <path
         d="m 141.96772,110.68079 c -1.12287,0.4191 -1.81084,1.01218 -2.26948,1.96109 -0.28467,0.57725 -0.30049,0.64842 -0.30049,1.38383 0,1.16242 0.33212,1.90573 1.19405,2.65696 0.84612,0.7354 2.15087,1.13078 3.06025,0.92519 0.86193,-0.19769 1.74758,-0.71959 2.25367,-1.32848 1.12288,-1.34429 1.09124,-3.25003 -0.0712,-4.58641 -0.90938,-1.04381 -2.60951,-1.48663 -3.86683,-1.01218 z m 0.0949,0.91728 c 0.12652,0.24514 0.13443,0.84612 0.0158,1.17824 -0.17397,0.49027 -0.66424,0.54562 -1.06752,0.11861 -0.43492,-0.45073 -0.33212,-0.92519 0.27676,-1.34429 0.34794,-0.23723 0.64052,-0.22141 0.77495,0.0474 z"
         id="path55"
         style="display:inline;fill:#000000;stroke:none;stroke-width:0.00790762" />
    </g>
  </g>
</svg>
