<?xml version="1.0" encoding="UTF-8" standalone="no"?>
<svg
   version="1.0"
   width="297mm"
   height="210mm"
   viewBox="0 0 841.88976 595.27559"
   preserveAspectRatio="xMidYMid"
   id="svg62"
   sodipodi:docname="header-mouse-meets-computer.svg"
   inkscape:version="1.4 (86a8ad7, 2024-10-11)"
   xml:space="preserve"
   xmlns:inkscape="http://www.inkscape.org/namespaces/inkscape"
   xmlns:sodipodi="http://sodipodi.sourceforge.net/DTD/sodipodi-0.dtd"
   xmlns="http://www.w3.org/2000/svg"
   xmlns:svg="http://www.w3.org/2000/svg"><defs
     id="defs62" /><sodipodi:namedview
     id="namedview62"
     pagecolor="#ffffff"
     bordercolor="#000000"
     borderopacity="0.25"
     inkscape:showpageshadow="2"
     inkscape:pageopacity="0.0"
     inkscape:pagecheckerboard="0"
     inkscape:deskcolor="#d1d1d1"
     inkscape:document-units="pt"
     inkscape:zoom="1.0046"
     inkscape:cx="543.00219"
     inkscape:cy="554.44953"
     inkscape:window-width="2556"
     inkscape:window-height="2041"
     inkscape:window-x="2551"
     inkscape:window-y="139"
     inkscape:window-maximized="0"
     inkscape:current-layer="layer2" /><g
     inkscape:groupmode="layer"
     id="layer1"
     inkscape:label="Background"
     style="display:none;opacity:0.409"
     sodipodi:insensitive="true"><path
       d="m 492.5,28.7 c -11.2,2 -40.1,11.6 -51.5,17.1 -9.2,4.4 -27.4,15.8 -35.5,22.3 -5.5,4.5 -26.7,26 -30.2,30.6 -1.5,2.1 -5.1,6.7 -7.9,10.3 -5.9,7.5 -8.6,12.1 -13.8,24 -2.1,4.7 -4.7,10.5 -5.8,13 -1.1,2.5 -2.4,5.6 -2.9,7 -0.4,1.4 -1.6,4.8 -2.7,7.5 -2.1,5.5 -5.4,19.9 -7.2,31 -1.8,11.5 -1.6,52.4 0.4,63 1.5,8.5 3.7,16.5 5.6,21 0.5,1.1 2.1,5.4 3.6,9.5 1.5,4.1 4.5,11.3 6.7,16 2.1,4.7 4.3,9.4 4.8,10.5 1.7,3.8 12,18.9 19.9,29.5 5.8,7.6 19,21.1 24.6,25.2 1.8,1.3 6.7,5 11,8.4 17.1,13.2 35.7,22.9 52.9,27.4 1.7,0.4 6.6,1.8 11,3 8.8,2.5 16.9,3.7 29,4.6 13.7,0.9 12.4,-0.7 11.8,14.6 -0.2,7.3 0,20 0.6,28.3 1,14 1.7,18.4 5.5,32.5 4.4,16.5 5.3,21.2 4.2,21.5 -0.6,0.2 -22.5,0.6 -48.6,0.9 -26.1,0.4 -57.8,1.1 -70.5,1.7 -25.5,1.2 -31.4,2.5 -44.5,9.6 -18.4,10 -28.6,21.2 -36.7,40.3 -7,16.4 -6.5,-7.1 -5.3,284.5 0.5,144.7 1.4,267.3 1.9,272.5 1,11.4 4.2,22.1 9,30.1 4.7,7.6 14,17.1 21.3,21.6 3.2,2 5.8,4 5.8,4.4 0,0.5 -19.4,0.9 -43.1,0.9 -29.7,0 -43.7,0.3 -45.2,1.1 -5,2.5 -5.7,4.6 -5.7,17.1 0,10.2 0.4,12.7 3,20.7 3.4,10.6 6.4,15.7 13.4,22.9 10.7,11.2 25.9,19.9 38.6,22.3 6.4,1.2 86.4,1.4 532.5,1.4 557,0 528.8,0.2 538,-4.3 4.2,-2 16,-11 22.1,-16.9 20.5,-19.5 27.8,-47.7 15.9,-60.8 l -3.1,-3.3 -12.9,-0.7 c -14.1,-0.8 -50.7,0 -72.9,1.6 -7.6,0.5 -14.1,0.7 -14.5,0.4 -0.3,-0.4 1.2,-2.2 3.4,-4.2 13.8,-12.2 19.6,-19.5 25.2,-32.1 5.8,-13.1 5.5,-9 6.5,-87.7 0.4,-40.2 0.6,-78.9 0.2,-86 -0.5,-11.8 -0.4,-13.2 1.3,-14.7 1,-0.9 7.2,-4.4 13.8,-7.8 6.6,-3.4 13.2,-7.1 14.7,-8.1 1.4,-1.1 2.9,-1.9 3.2,-1.9 1.2,0 34.5,-20.6 39.1,-24.2 0.6,-0.4 5.5,-4.1 11,-8.2 28.1,-20.9 45.9,-36.6 58.5,-51.6 22.8,-27.1 41,-63 47.1,-92.8 4.5,-22.1 0.8,-59 -7.8,-77.1 -5.3,-11.1 -16.5,-26.4 -27.2,-37.2 -11.7,-11.7 -16.7,-15.1 -28.6,-19.5 -6.7,-2.4 -9.5,-2.9 -17.5,-2.9 -8.8,0 -9.8,0.2 -13.7,2.9 -4,2.7 -8.3,8.3 -8.3,10.9 0,0.9 3.2,1.3 12.3,1.3 13.4,-0.1 17.3,0.8 28.3,5.9 11.7,5.4 19.5,12 29.1,24.6 13.4,17.5 21.9,53.2 18.4,76.9 -2.9,19.9 -2.9,19.8 -6.7,27.2 -0.8,1.4 -1.4,3.1 -1.4,3.6 0,1.4 -6.1,14.2 -10.1,21.2 -21,37.2 -38.3,56.6 -73.5,82.6 -13.2,9.7 -34.2,24.6 -35.9,25.4 -0.5,0.3 -3.5,2.2 -6.6,4.2 -11.9,7.7 -30.9,17.3 -36.2,18.3 l -3.5,0.7 -0.1,-162.9 c 0,-89.5 -0.4,-167.1 -0.7,-172.3 -0.5,-8.8 -2.5,-21.1 -4,-25.6 -3.2,-9.4 -11.8,-23.6 -18.8,-31.3 -10.2,-11 -25.5,-19.5 -40.1,-22.3 -2.7,-0.5 -36.9,-1.3 -76,-1.8 -74,-0.9 -86.2,-1.3 -89.1,-3.4 -1.6,-1.2 -1.5,-1.7 0.9,-8.2 1.4,-3.8 3.3,-9.6 4.1,-12.9 4.7,-18.4 4.9,-20.7 5.3,-46.5 l 0.3,-25.5 8.3,-0.8 c 13.7,-1.2 23.9,-2.7 30.2,-4.3 9.7,-2.5 16.9,-4.8 17.9,-5.6 0.6,-0.4 1.6,-0.8 2.4,-0.8 0.8,0 4.3,-1.3 7.9,-3 3.5,-1.7 6.8,-3 7.1,-3 0.9,0 13.1,-6.2 21.3,-10.8 9.4,-5.2 19.5,-12.5 27.5,-19.7 4.2,-3.9 8.3,-7.3 9,-7.8 2.7,-1.6 16.5,-18.7 22.4,-27.8 5,-7.7 14.4,-25.6 18.1,-34.4 8.6,-20.6 11.9,-32.9 13.9,-51.7 5.1,-48.4 -6.9,-95.7 -34.4,-135.8 -17.1,-24.9 -42.7,-48.3 -63.9,-58.4 -19.9,-9.4 -39,-15.7 -53.7,-17.6 -4.7,-0.6 -11.4,-1.5 -15,-2 -8.6,-1.2 -39.3,-1.2 -45,0.1 -2.5,0.5 -7.1,1.3 -10.3,1.8 -11.3,1.8 -40.4,11.8 -51.7,17.8 -20.9,11.1 -40.1,27.9 -55.7,48.8 -6.6,8.8 -16.6,25.1 -20,32.5 -5.9,12.9 -5.9,12.8 -7.2,19 -0.7,3 -1.6,7.3 -2,9.5 -0.5,2.2 -1.4,7.4 -2.1,11.5 -0.6,4.1 -1.5,7.8 -1.9,8.2 -0.4,0.4 -7.4,-2.2 -15.6,-5.8 -23.7,-10.4 -40.5,-15.2 -72,-20.5 -9.9,-1.6 -68.5,-2.4 -81.2,-1 -5.7,0.6 -14.9,1.6 -20.5,2.2 -22.7,2.3 -48.3,10 -71.2,21.5 -5,2.4 -9.4,4 -9.8,3.6 -0.5,-0.5 -1.3,-4 -1.9,-7.8 -2.6,-18 -6.4,-31.1 -13.1,-44.7 -4.6,-9.4 -12.8,-23.2 -15.5,-26.2 -1,-1.1 -3.4,-4 -5.5,-6.5 C 648.4,79.2 632,64.3 618.5,55.5 613,51.9 593.6,41.8 588.5,39.9 c -1.1,-0.4 -3.6,-1.4 -5.5,-2.2 -1.9,-0.8 -5.5,-1.9 -8,-2.6 -2.5,-0.6 -7,-1.8 -10,-2.7 -17.5,-4.9 -55.6,-6.8 -72.5,-3.7 z m 675.2,16.8 c 12.3,2.5 30.9,8.1 40.2,12.2 13.4,5.9 37.3,22 48.1,32.5 12.5,12 22.6,25.9 33.3,45.4 6.5,12 13.9,33.2 16.1,45.9 6.4,38 2.8,73.8 -10.7,105 -10.1,23.5 -22.3,41.6 -39,58 -17.3,17 -34.8,28.4 -57.7,37.5 -7.9,3.2 -28.1,8 -38,9.1 -4.7,0.5 -11.3,1.2 -14.6,1.5 l -6.1,0.6 -1.6,-5.3 c -0.9,-3 -2.4,-8.6 -3.3,-12.4 -3,-13.2 -10.6,-34 -17.6,-48 -9.5,-19.2 -14.9,-27.8 -40,-62.8 -8.9,-12.4 -27.3,-32 -33.8,-36 -1.9,-1.2 -10.1,-6.9 -18.1,-12.8 -17.2,-12.6 -30.7,-21.9 -31.7,-21.9 -0.4,0 -2.5,-1.4 -4.6,-3.2 l -3.9,-3.2 0.6,-12 c 1.2,-24.5 7.5,-42.1 23.4,-65.2 10.3,-15 19.6,-24.1 38.4,-37.8 9.9,-7.1 16.4,-10.6 28.9,-15.3 16.6,-6.4 23.9,-8.3 44,-11.4 4.1,-0.6 8,-1.3 8.5,-1.4 3.4,-1.1 32.4,-0.3 39.2,1 z m -625.2,0.6 c 24.7,3.3 53.8,15.4 74,30.8 22.3,16.9 37.7,36.3 47.1,59.1 4,9.5 4.7,11.8 8.8,28.1 1.9,7.4 3.9,14.7 4.5,16.2 2.4,6.3 1.8,7.3 -7.2,11.7 -4.6,2.2 -11.9,6.6 -16.3,9.8 -9.6,6.9 -11.7,8.4 -16.9,11.9 -2.2,1.4 -6,4.3 -8.4,6.4 -2.4,2.1 -6.7,5.4 -9.5,7.3 -9.3,6.2 -30.8,29 -41.6,44.1 -5.4,7.7 -11.4,16 -13.2,18.5 -1.8,2.5 -7.3,12.4 -12.2,22 -4.9,9.6 -10.6,20.6 -12.5,24.5 -3.4,6.7 -9.1,23 -12.6,36 -0.8,3.3 -2,7.4 -2.5,9.1 -0.6,1.7 -1,4 -1,5.3 0,1.2 -1,3.2 -2.3,4.5 -2.1,2.1 -2.8,2.2 -9.2,1.5 -12.7,-1.5 -20.9,-2.8 -26.5,-4.5 -3,-0.8 -7.3,-2 -9.5,-2.5 -7.3,-1.8 -21.9,-7.1 -29,-10.6 C 432,368 419.9,359.1 406.4,345.6 379.5,318.7 363.9,292.5 357.6,263 c -0.9,-4.1 -2.1,-9.4 -2.6,-11.6 -2.3,-10.3 -3.3,-31.4 -2.1,-46.7 2,-27.1 4.4,-39.9 9.4,-50.7 12.8,-28 14.3,-31 17.9,-36.1 14.1,-19.6 33.7,-36.9 56.3,-49.8 12,-6.9 33.3,-15.1 48.3,-18.7 17,-4 41.8,-5.5 57.7,-3.3 z m 324,121.9 c 26.9,3 55,10.7 80,22 16.1,7.3 23,10.8 31.3,16.2 5.4,3.4 10.5,6.7 11.4,7.3 7.3,4.4 30.5,21.4 36.3,26.5 11.9,10.5 31.2,30.7 39.7,41.5 0.4,0.5 2.4,3 4.4,5.5 16,19.7 35.8,58.7 43.3,85 7.5,26.4 7.9,28.2 9.1,40 2.2,22 0.7,48.3 -3.7,63.5 -4,14.1 -8.4,27.7 -9.8,31 -3.9,8.7 -5.7,12.4 -7.7,16 -14.3,25 -46.9,55.4 -73.1,67.9 -6.2,3 -13.4,6.2 -16.1,7.2 l -4.9,1.8 -4.1,-4.6 c -4.4,-5 -17.1,-13.3 -24.6,-16.1 -13.2,-4.9 -26.2,-5.9 -41.2,-3.2 -15,2.6 -20.1,5.5 -30.9,17 -13.7,14.8 -15.5,18.9 -14.6,34 0.7,11.1 2,16.3 6.8,26 4.3,8.5 7.8,12.7 14.7,17.3 11.2,7.5 27.4,12.2 41.8,12.2 24.1,0 48.1,-14 57.4,-33.4 4.3,-9.2 6.6,-21.3 5.5,-29.9 l -0.7,-5.2 4.9,-1.8 c 2.6,-0.9 5.5,-1.7 6.4,-1.7 2.3,0 21.4,-9.9 30,-15.5 8.1,-5.4 14.9,-10.8 21.9,-17.4 2.5,-2.3 6.6,-5.3 9.3,-6.7 4.6,-2.4 5.4,-2.5 41,-3.4 19.9,-0.5 57.9,-1 84.3,-1 41.2,0 49.2,0.2 55.5,1.6 15.2,3.4 26.9,14.5 32.1,30.2 1.7,5.3 1.8,15.9 1.8,235.1 -0.1,126.3 -0.5,237.9 -0.9,248.1 -1,21 -1.8,24.1 -8.8,33.2 -4.8,6.3 -8.6,9.5 -14.8,12.6 -3.9,2 -6.7,2 -118.5,2.7 -179.9,1.2 -518.3,1.5 -564,0.6 -22.8,-0.5 -62.6,-0.5 -88.5,0 -83.7,1.5 -97.4,1.4 -103.6,-0.8 -9.9,-3.4 -23.1,-19.1 -26.7,-31.6 -1.2,-4.5 -1.5,-36.2 -2.1,-224.2 C 375.8,753 375.5,641.7 375.5,626 v -28.5 l 2.8,-5.7 c 3.4,-6.9 11.9,-15.1 22,-21 l 7.2,-4.3 20,0.1 c 11,0 47.1,0.4 80.3,0.9 l 60.3,0.8 4.4,3.6 c 2.4,2 9.2,8.1 15.2,13.5 15.3,14 22.8,18.5 42.3,25 11.7,4 10.9,3 9.5,13.4 -0.8,5.2 0.2,10.8 4.2,23.7 3.3,10.3 8.7,15.7 24.3,24.3 9,4.9 14.2,6.7 23.7,8.1 21.4,3.2 44.6,-0.8 56.8,-9.9 10.8,-8.1 15.9,-15.3 20.5,-29.1 2.9,-8.6 3.1,-10.3 2.8,-19.7 -0.2,-5.6 -0.2,-10.2 -0.2,-10.2 0.1,0 2.1,0.9 4.5,1.9 8.8,3.9 41.1,6.2 58.8,4.1 16.8,-1.9 20.7,-3.3 18.1,-6.5 -1.5,-1.8 -1,-2 8.5,-3.4 19.5,-2.8 24.2,-4.7 9,-3.7 -41.7,2.8 -102.6,2.2 -108.5,-1 -1.4,-0.7 -5,-3.7 -8,-6.5 -8.4,-7.7 -18.8,-15.4 -26,-19.1 l -6.5,-3.3 H 704 c -18.5,0 -17.9,-0.1 -30.5,5.6 -4.3,2 -9.9,5.7 -18.8,12.7 l -5.5,4.3 -7.9,-2.7 c -8.3,-2.8 -21.2,-9 -30.3,-14.4 -20.7,-12.2 -47.5,-42.9 -59.8,-68.5 -3.4,-7.1 -7.3,-19.6 -10.5,-34 -0.8,-3.9 -2.1,-9.7 -2.9,-13 -1.8,-8.1 -1.8,-48.3 0,-58.5 1.3,-7.2 2.3,-11.4 5.6,-22.9 0.9,-2.9 1.6,-6.2 1.6,-7.2 0,-1.1 0.4,-2.7 0.9,-3.7 0.6,-0.9 1.7,-4.4 2.6,-7.7 0.9,-3.3 2.3,-7.5 3.1,-9.3 0.8,-1.8 1.4,-4.4 1.4,-5.8 0,-1.4 2.1,-6.5 4.6,-11.2 2.6,-4.8 7.2,-13.4 10.2,-19.2 3,-5.8 6.6,-12.2 7.9,-14.2 1.2,-2.1 2.3,-4.1 2.3,-4.5 0,-0.5 1,-1.9 2.3,-3.3 1.2,-1.4 2.9,-3.5 3.7,-4.6 13.6,-19.4 36.1,-41.6 61.5,-61.1 6,-4.6 20.4,-14.3 21.1,-14.3 0.4,0 2.1,-1 3.8,-2.3 7.9,-5.9 26.7,-16.5 37.6,-21.1 1.9,-0.8 7,-3.1 11.3,-5 21.5,-10 46.9,-16.7 72.2,-19.2 24.7,-2.4 55,-2.6 75,-0.4 z M 721.7,588.2 c 9.7,4.7 23.2,18.2 27.4,27.3 4.5,9.5 4.6,17.4 0.4,26 -12.9,26.6 -54.1,31.7 -78.6,9.7 -7.7,-6.9 -11.9,-13.9 -11.9,-20 0,-7.7 4.4,-18.4 12.1,-29.9 3.4,-4.9 13.4,-11.8 19.2,-13.3 2.3,-0.6 5.3,-1.5 6.7,-2 1.4,-0.5 6,-0.9 10.4,-0.9 6.9,-0.1 8.6,0.3 14.3,3.1 z M 961.1,587 c 16.8,3.1 31.1,16.5 36.3,34.1 2.2,7.4 2,10 -1.3,17.2 -4.9,10.6 -13.1,17.2 -28.9,23.1 -3,1.1 -7.6,1.6 -15.7,1.6 h -11.4 l -8.4,-4.3 c -9.7,-5 -16.8,-10.5 -20.9,-16.1 -2.4,-3.4 -2.8,-4.8 -2.8,-10.9 0,-22.4 15.8,-40.9 38,-44.6 7.7,-1.2 9,-1.2 15.1,-0.1 z m -5.9,605 c -0.4,6.7 -2.8,9.3 -9.3,10.3 -5.6,0.8 -159.5,0.2 -196.4,-0.9 -17.6,-0.5 -21.3,-0.8 -22.9,-2.2 -2.5,-2.3 -4.8,-7 -4.4,-9 0.3,-1.4 10.1,-1.6 113.8,-2 62.4,-0.2 113.7,-0.6 114,-0.8 0.2,-0.3 1.6,-0.4 3,-0.2 2.3,0.3 2.5,0.6 2.2,4.8 z m -253.5,-3.2 c 0.7,0.4 2.2,3.8 3.3,7.4 2.4,7.9 6.9,14.1 12.9,18.2 l 4.4,2.9 24.5,0.8 c 73.8,2.5 112.2,2.9 159.7,1.8 46.2,-1 49.2,-1.2 53.4,-3.1 5.6,-2.7 13.4,-13.1 15.8,-21.1 1.4,-4.5 2.3,-5.9 4.1,-6.4 1.4,-0.3 99.8,-0.4 218.9,-0.1 193.5,0.4 216.5,0.6 217.9,2 3.5,3.5 -4.6,20.1 -15.7,32.2 -8,8.8 -20.2,16.1 -31.7,19 -5.8,1.5 -28.5,1.6 -229,1.8 -122.5,0.1 -302.6,0.1 -400.2,-0.1 -421.3,-0.8 -405.9,-0.6 -418.8,-4.4 -6.1,-1.9 -14,-6.9 -22,-14.2 -8.4,-7.7 -14.7,-20 -14.7,-29 v -6 l 29.5,-0.6 c 16.2,-0.4 102.8,-0.7 192.4,-0.8 89.6,-0.1 163.2,-0.3 163.4,-0.6 0.9,-0.8 30.6,-0.5 31.9,0.3 z"
       id="path1"
       style="fill:#000000;stroke:none;stroke-width:0.1" /><path
       d="m 1169,589.6 c -7.5,0.9 -11,4.9 -11,12.3 0,7.7 6.4,18.1 11.2,18.1 1.1,0 3.3,-1.3 4.9,-2.9 2.8,-2.8 2.9,-3.3 2.9,-11.8 0,-9.9 1.4,-13.3 5.6,-13.3 5.1,0 8.3,6.8 7,15 -0.7,4.8 0.4,5.6 3.8,2.9 2.3,-1.8 2.6,-2.7 2.6,-8.4 0,-5.8 -0.2,-6.5 -3.1,-8.9 -1.7,-1.4 -4.3,-2.6 -5.8,-2.6 -1.6,0 -5.5,-0.2 -8.7,-0.4 -3.2,-0.2 -7.5,-0.2 -9.4,0 z m 0.8,20.2 c 0.2,0.7 -0.3,1.2 -1.2,1.2 -0.9,0 -1.6,-0.7 -1.6,-1.6 0,-1.7 2.2,-1.4 2.8,0.4 z"
       id="path12"
       style="fill:#000000;stroke:none;stroke-width:0.1" /><path
       d="m 1238.1,592.2 c -5.7,2.8 -8.1,6.8 -8.1,13.8 0,5.8 1.2,8.4 5.8,12.8 2.9,2.8 9.5,6.2 12,6.2 3.7,0 8.7,-2.9 13.3,-7.7 8.5,-8.8 9,-12.6 2.8,-19.7 -2.3,-2.6 -5.4,-5.3 -7,-6.1 -4.1,-2.2 -13.5,-1.8 -18.8,0.7 z m 17.6,11 c 2,2.1 2.7,4.5 2.4,7.5 -0.2,2.3 -4.8,6.3 -7.3,6.3 -4,0 -6.2,-3.2 -5.5,-8.2 0.9,-7.1 6.4,-9.9 10.4,-5.6 z"
       id="path13"
       style="fill:#000000;stroke:none;stroke-width:0.1" /><path
       d="m 445.5,607.9 c -0.3,0.5 -0.1,1.2 0.5,1.6 0.5,0.3 1,-0.1 1,-0.9 0,-1.8 -0.6,-2.1 -1.5,-0.7 z"
       id="path14"
       style="fill:#000000;stroke:none;stroke-width:0.1" /><path
       d="m 621.5,648.9 c -2.5,0.6 -1.6,1 5.5,2.4 9.5,1.9 19,2.2 19,0.7 0,-0.6 -1,-1.4 -2.2,-1.9 -3.1,-1.1 -18.6,-1.9 -22.3,-1.2 z"
       id="path15"
       style="fill:#000000;stroke:none;stroke-width:0.1" /><path
       d="m 740.5,753.3 c -2.7,1.3 -5.6,4.1 -12.2,12 -1.2,1.4 -3.3,4.5 -4.5,6.8 -1.3,2.3 -2.9,5.3 -3.6,6.6 -1.2,2.1 -1.1,2.7 0.4,4.4 2.5,2.8 4.3,10.1 4.4,17.9 0,9.8 1.2,20 2.2,20 0.5,0 0.8,-7.7 0.6,-18 -0.2,-15.2 -0.1,-18.2 1.2,-19 0.9,-0.6 5.6,-0.7 11,-0.4 10.4,0.7 13,2.1 13,7.3 0,5.7 1.7,5.2 2.4,-0.9 l 0.7,-6.1 7.7,0.3 7.7,0.3 0.6,9.1 c 0.4,5 1.1,10 1.7,11 0.5,1.1 1.2,3.5 1.6,5.4 1,5.5 2.9,7.2 8.4,7.8 6.3,0.6 9.4,-1 9,-4.6 -0.3,-2.6 -0.5,-2.7 -6.1,-2.4 -8.3,0.5 -9.2,-0.6 -10.8,-12.9 -0.9,-7.5 -0.9,-10.3 -0.1,-11.1 0.6,-0.6 4.4,-1.2 8.4,-1.2 l 7.3,-0.1 v -3.5 -3.5 l -7,-0.5 -7,-0.5 -0.5,-6.7 c -0.9,-11.6 -5,-12.2 -4.8,-0.7 0,3.8 -0.3,7.4 -0.8,7.8 -1.8,1.7 -6.1,2 -8,0.7 -2.1,-1.6 -2.5,-7.8 -0.9,-14.9 0.7,-3.4 0.6,-3.7 -1.4,-3.7 -1.9,0 -2.1,0.5 -2.1,6.7 0,11.9 0.6,11.3 -13.1,11.3 -13.5,0 -14.6,-0.6 -11.4,-6.6 2.2,-4.2 8.2,-7.4 13.7,-7.4 5.7,0 9,-3 7.6,-7 -1.1,-3.2 -1.8,-3.6 -7.9,-4.4 -2.8,-0.4 -5.5,-0.1 -7.4,0.7 z"
       id="path16"
       style="fill:#000000;stroke:none;stroke-width:0.1" /><path
       d="m 643.4,758.9 c -3.9,1 -12,6.5 -13.8,9.4 -2,3.2 -2.7,8.3 -1.6,11.2 1.2,3.1 12.7,10.7 20.7,13.7 8.3,3.1 10.5,5.3 10.1,10.2 -0.3,3.5 -0.8,4.3 -4.3,6.3 -2.2,1.3 -5.7,2.3 -7.8,2.3 -3.1,0 -4.3,-0.6 -6.8,-3.5 -3.7,-4.2 -9.6,-6.3 -12.8,-4.6 -8,4.3 8.4,16.1 22.4,16.1 7.6,0 10.2,-1.6 14.1,-8.7 3.3,-5.8 3.6,-7 3.2,-12 -0.4,-4.8 -1,-6.1 -3.6,-8.4 -1.8,-1.6 -4.4,-3.2 -5.9,-3.5 -1.5,-0.4 -6.1,-2.2 -10.2,-4 l -7.6,-3.3 -0.3,-4.4 c -0.3,-3.9 0.1,-4.9 3.1,-8.1 2.8,-2.9 4.1,-3.6 7.4,-3.6 4.2,0 6.3,1.4 6.3,4.1 0,2.7 4.9,6.2 6.6,4.8 2.4,-1.9 1.6,-4.5 -2.8,-9.4 -3.7,-4.1 -4.9,-4.7 -8.8,-5 -2.5,-0.2 -5.9,0 -7.6,0.4 z"
       id="path17"
       style="fill:#000000;stroke:none;stroke-width:0.1" /><path
       d="m 800.7,775.7 c -1,0.9 -0.9,5.1 0.2,5.7 0.9,0.6 4.1,9.2 6.1,16.6 2.1,7.6 5,16.4 6.2,18.7 1.7,3.3 6.1,3.1 8.6,-0.5 2.3,-3.2 5.8,-10.8 6.4,-13.7 1.3,-7.1 10.8,3 10.8,11.5 0,3 0.2,3.1 3.7,2.8 3.6,-0.3 3.8,-0.6 5.9,-6.3 1.1,-3.3 2.6,-7.1 3.1,-8.5 0.6,-1.4 1.5,-4.1 2.1,-6 0.7,-1.9 2.3,-6.9 3.6,-11 1.3,-4.1 2.2,-7.8 1.9,-8.3 -0.2,-0.4 -1.7,-0.7 -3.3,-0.7 -2.5,0 -3,0.5 -3.9,4.2 -2.1,9.1 -2.8,11.4 -4.5,14.5 -0.9,1.8 -2.3,3.3 -3,3.3 -1.9,0 -9.5,-8.5 -11.1,-12.4 -0.8,-1.8 -2.1,-3.9 -3.1,-4.6 -1.4,-1.3 -1.9,-1.1 -3.5,0.9 -1.1,1.4 -1.9,3.9 -1.9,6.1 0,2.1 -0.7,5.4 -1.5,7.3 -0.8,2 -1.5,5 -1.5,6.6 0,2.7 -2.1,6.1 -3.9,6.1 -0.7,0 -3.6,-6.9 -9.6,-22.8 -3.2,-8.7 -5.7,-11.7 -7.8,-9.5 z"
       id="path18"
       style="fill:#000000;stroke:none;stroke-width:0.1" /><path
       d="m 872,777.5 c -2,2.4 -0.2,3.5 5.8,3.5 6.5,0 9.3,1.5 11.6,6.2 3,6 2.7,6.2 -10.4,7.3 -10,0.9 -12,2.6 -12,10.5 0,6.3 0.8,7.7 6.4,11.4 4.8,3.2 12.3,3.5 17.6,0.6 1.9,-1 4.5,-2.3 5.6,-2.9 2.8,-1.3 3.4,-3.8 2.3,-11.3 -0.5,-3.5 -1,-8.8 -1.1,-11.8 -0.4,-7.1 -2.6,-10.6 -8.4,-13.1 -5.6,-2.3 -15.6,-2.6 -17.4,-0.4 z m 19.6,23 c 0.9,3.6 -0.4,7.6 -3.4,10.7 -2.1,2.3 -3.4,2.8 -7.6,2.8 -6.3,0 -8.6,-1.9 -8.6,-7.1 0,-4.4 2.6,-6.9 7.5,-7 1.6,0 3.9,-0.4 5,-0.9 3.9,-1.7 6.4,-1.1 7.1,1.5 z"
       id="path19"
       style="fill:#000000;stroke:none;stroke-width:0.1" /><path
       d="m 687,779.6 c -3.5,2.2 -8.4,9 -10.5,14.7 -1.8,4.8 -1.8,4.9 0.3,9 2.8,5.8 10,13.7 13.9,15.4 6.8,2.8 11.2,0.7 17.2,-8.4 2.8,-4.2 3.1,-5.4 3.1,-12.3 0,-13.4 -5.5,-20 -16.5,-20 -2.8,0 -6.1,0.8 -7.5,1.6 z m 13.6,6.2 c 5.4,4.3 7,14 3.4,19.9 -3,4.9 -6.3,6.6 -11.6,6 -5.4,-0.6 -8,-2.7 -10.6,-8.6 -2.7,-5.9 -1.8,-10.1 3.3,-15.2 3.5,-3.5 4.4,-3.9 8.7,-3.9 2.9,0 5.5,0.7 6.8,1.8 z"
       id="path20"
       style="fill:#000000;stroke:none;stroke-width:0.1" /><path
       d="m 950,783.5 c -10.5,10.1 -10.1,16.6 1.5,28.2 7.9,7.8 9.7,8.5 16.6,6.2 3.4,-1.2 7.9,-4.6 7.9,-6 0,-0.4 -4.2,-0.7 -9.2,-0.6 -7.3,0.2 -10,-0.2 -12.6,-1.6 -3.7,-2 -7.4,-7.3 -7,-10.1 0.3,-1.7 1.4,-1.9 13,-2.1 12.9,-0.2 15.8,-1 15.8,-4.2 0,-1.3 -1.3,-1.4 -8.7,-0.8 -4.9,0.3 -10.5,1.1 -12.5,1.7 -3.8,1.1 -6.8,0.6 -6.8,-1.1 0,-0.5 1,-2.1 2.3,-3.6 4.4,-5.1 18.9,-6.3 23.7,-2 2.4,2.2 3,1.9 3,-1.8 0,-2 -0.8,-4.2 -2,-5.5 -1.8,-1.9 -3.1,-2.2 -10.6,-2.2 h -8.5 z"
       id="path21"
       style="fill:#000000;stroke:none;stroke-width:0.1" /><path
       d="m 1029.5,780.1 c -1.1,1.7 0.1,2.1 1.5,0.4 0.8,-0.9 0.8,-1.5 0.2,-1.5 -0.6,0 -1.4,0.5 -1.7,1.1 z"
       id="path22"
       style="fill:#000000;stroke:none;stroke-width:0.1" /><path
       d="m 927.3,780.7 c -3,0.6 -2.9,1.7 0.2,3.1 3,1.4 3.3,4.8 0.6,5.7 -1.1,0.3 -2.2,1.2 -2.5,2 -0.7,1.8 -1,1.9 4.9,-0.3 6.9,-2.4 7.5,-2.9 7.5,-6.3 0,-4.1 -3.7,-5.5 -10.7,-4.2 z"
       id="path23"
       style="fill:#000000;stroke:none;stroke-width:0.1" /><path
       d="m 909.6,783.9 c -1.1,2 -1.4,4.8 -1,9.7 0.2,3.8 0.6,10.2 0.8,14.2 0.3,7.7 1.5,9.8 4.6,8.2 1.3,-0.7 1.5,-1.8 1.1,-5.2 -0.3,-2.3 -0.3,-8.5 0,-13.6 0.6,-8.8 0.8,-9.6 3.4,-11.6 3.7,-2.9 2.6,-4.6 -3,-4.6 -3.9,0 -4.6,0.4 -5.9,2.9 z"
       id="path24"
       style="fill:#000000;stroke:none;stroke-width:0.1" /><path
       d="m 990.3,782.5 c -2.1,1.6 -2.8,10.7 -1.8,23.9 0.7,9.2 0.7,9.4 3.3,9.9 1.5,0.3 3.4,0.1 4.2,-0.4 0.9,-0.5 1,-0.9 0.3,-0.9 -0.6,0 -1.9,-0.7 -2.7,-1.6 -2,-1.9 -2.2,-17.9 -0.4,-21.9 1.1,-2.6 1.4,-2.6 8.7,-2.3 4.2,0.2 8.3,0.7 9.1,1.1 2,0.9 4.6,-2.9 3.1,-4.7 -2.2,-2.6 -21.1,-5.1 -23.8,-3.1 z"
       id="path25"
       style="fill:#000000;stroke:none;stroke-width:0.1" /><path
       d="m 793.6,833.3 c -1.6,1.1 -1.7,1.7 -0.7,3.6 1.4,2.5 3,19.1 4,40.6 0.6,13.7 0.6,14 3,14.3 3.9,0.6 7.4,-0.7 6.7,-2.4 -2.3,-5.9 -3.8,-18.2 -4.3,-34.8 -0.5,-16.6 -0.8,-19.1 -2.5,-20.8 -2.1,-2.1 -3.8,-2.3 -6.2,-0.5 z"
       id="path26"
       style="fill:#000000;stroke:none;stroke-width:0.1" /><path
       d="m 1045.3,842.2 c -0.9,1.4 -2.9,8.1 -4.3,14.3 -0.7,3.3 -0.6,4.5 1.1,6.7 1.5,2.2 1.9,4.4 1.9,11.2 0,10.1 2,16.3 5.7,17.7 4.3,1.6 11.3,0.9 11.3,-1.2 0,-0.5 -2,-1.9 -4.4,-3.1 -2.4,-1.1 -4.9,-3.2 -5.5,-4.5 -0.6,-1.3 -1.1,-6.1 -1.1,-10.7 0,-9.3 0.3,-9.9 7.8,-13.1 2.3,-1 4.2,-2.2 4.2,-2.6 0,-0.5 -1.8,-1.2 -4,-1.5 -5.7,-0.9 -6.9,-2.2 -7.7,-8.4 -0.8,-5.5 -3.1,-7.7 -5,-4.8 z"
       id="path27"
       style="fill:#000000;stroke:none;stroke-width:0.1" /><path
       d="m 630.8,844.2 c -1.3,1.1 -1.7,5.1 -2.3,25 -0.6,21.2 -0.5,23.9 0.9,24.4 2.2,0.9 18.2,-1.6 23.4,-3.5 6.7,-2.6 13.6,-10 15,-16 1.8,-7.8 -0.7,-17.6 -6,-23.6 -2.2,-2.5 -5.6,-5.2 -7.5,-6 -4.5,-1.9 -21.2,-2.1 -23.5,-0.3 z m 20.8,7.7 c 6.5,3.9 10.8,15.2 8.5,21.8 -3.2,9 -8.2,12.2 -18.9,12.6 l -7.7,0.2 0.2,-16.9 c 0.1,-9.2 0.4,-17.4 0.7,-18.2 0.9,-2.2 13.3,-1.9 17.2,0.5 z"
       id="path28"
       style="fill:#000000;stroke:none;stroke-width:0.1" /><path
       d="m 714,853.2 c 0,1.4 0.6,4.4 1.4,6.9 0.7,2.4 1.9,6.9 2.6,9.9 1,4.5 5,14.3 9,22 0.4,0.8 1.5,1.5 2.5,1.5 2.3,0 2.8,-1 6.5,-13.5 4.5,-15.2 6.2,-20.2 7.7,-23 1.6,-3.1 1.6,-4 0,-4 -0.7,0 -2.1,1.7 -3.2,3.7 -1,2.1 -2.6,4.6 -3.4,5.5 -0.8,1 -2.2,4.2 -3.2,7 -2.4,7.2 -4.5,7.3 -8.5,0.5 -1.7,-2.8 -3.8,-7 -4.8,-9.2 -3.8,-8.9 -6.6,-12 -6.6,-7.3 z"
       id="path29"
       style="fill:#000000;stroke:none;stroke-width:0.1" /><path
       d="m 698.5,854.1 c -1.6,0.5 -4.4,0.6 -6.1,0.3 -3.5,-0.6 -10,2.1 -13.3,5.7 -3.2,3.4 -6.1,10.5 -6.1,14.7 0,5.2 6.5,15.9 11.1,18.4 4.4,2.4 15.1,2.5 17.4,0.2 2.8,-2.9 1.2,-3.9 -7.1,-4.4 -5.5,-0.3 -8.8,-1.1 -10.7,-2.4 -2.5,-1.7 -2.8,-2.4 -2.5,-6.5 0.2,-3.2 0.8,-4.6 1.8,-4.7 0.8,-0.1 6.1,-1 11.8,-2 11.5,-2.1 11.6,-2.2 11.4,-11.2 -0.1,-5.6 -1.5,-9.3 -3.5,-9.1 -0.7,0 -2.5,0.5 -4.2,1 z m -2.9,4.7 c 1.6,1 4.6,7.1 4,8.1 -0.3,0.5 -2.8,1.1 -5.6,1.5 -2.8,0.4 -5.6,0.9 -6.3,1.1 -2.6,1 -3.8,-1 -2.7,-4.1 2.3,-5.9 7.1,-8.9 10.6,-6.6 z"
       id="path30"
       style="fill:#000000;stroke:none;stroke-width:0.1" /><path
       d="m 824.7,854.1 c -0.9,0.5 -2.4,2.3 -3.2,3.9 l -1.6,3 h 6.1 c 4.8,0 7.1,0.6 10.6,2.6 11.1,6.5 11.2,15.2 0.3,22.6 -5,3.3 -7.1,3.5 -11.3,0.9 -5.2,-3.2 -7,-7.5 -7.1,-16.4 0,-6 -0.3,-7.6 -1.3,-7.2 -0.8,0.3 -1.5,0.5 -1.8,0.5 -1.4,0 -3.4,6.8 -3.4,11.5 0,6.6 1,8.8 5.9,13.3 6.9,6.2 12.1,7.5 18.9,4.7 6.1,-2.6 18.2,-15.8 18.2,-20 0,-2.5 -11.7,-14.3 -17.5,-17.6 -5.1,-3 -9.7,-3.6 -12.8,-1.8 z"
       id="path31"
       style="fill:#000000;stroke:none;stroke-width:0.1" /><path
       d="m 935,854.5 c -2.9,1.7 -6.6,1.9 -7.5,0.5 -1,-1.6 -4.4,-1.2 -6.6,0.8 -1.5,1.5 -3.1,1.8 -7.7,1.5 -3.1,-0.2 -7.3,-0.5 -9.2,-0.6 l -3.5,-0.2 -0.3,13.5 c -0.2,10.3 0.1,14 1.1,15.4 2.4,3.3 3.7,0.9 3.7,-7 0,-4.3 0.6,-9 1.4,-10.9 1.5,-3.4 1.7,-3.5 7.1,-3.5 5.4,0 5.6,0.1 7.1,3.5 0.9,2.2 1.4,7 1.4,13.5 v 10 h 2.5 2.5 v -11.8 c 0,-13.4 0.6,-14.9 7.2,-18.3 3.6,-1.9 4.2,-1.9 5.6,-0.6 2,2.1 4.1,13.5 4.2,23 0,6.1 0.3,7.9 1.6,8.4 3.3,1.2 3.9,-1.4 3.7,-15.4 -0.2,-13.4 -1,-17.9 -4.1,-21.6 -1.8,-2.1 -6.7,-2.2 -10.2,-0.2 z"
       id="path32"
       style="fill:#000000;stroke:none;stroke-width:0.1" /><path
       d="m 963.6,858.1 c -6.3,5.9 -9.1,10.9 -8.1,14.7 1.3,5.1 5.9,13.4 9.1,16.2 2.6,2.2 4.7,3 9.6,3.5 3.5,0.4 7.9,0.3 9.8,-0.2 3.1,-0.8 3.5,-1.3 3.8,-4.7 0.4,-4.3 1.1,-4.1 -8.3,-1.7 -7.9,2.1 -13.3,-0.8 -13.8,-7.4 -0.2,-2.5 0.3,-2.9 4.8,-4.1 4,-1.1 11.7,-2.1 17.8,-2.4 0.4,0 0.7,-2.1 0.7,-4.6 0,-3.8 -0.5,-5.1 -3,-7.4 -3.8,-3.6 -10.8,-7 -14.3,-7 -1.8,0 -4.4,1.6 -8.1,5.1 z m 17.1,4.5 c 0.7,1 1.2,2.3 1,2.8 -0.5,1.4 -6.3,2.8 -10.1,2.4 -3.7,-0.4 -4.7,-3.5 -2,-6.3 2.2,-2.2 9.2,-1.5 11.1,1.1 z"
       id="path33"
       style="fill:#000000;stroke:none;stroke-width:0.1" /><path
       d="m 765,855.4 c -10.1,2.2 -13,5.5 -13,14.5 0,5.8 5.6,17.8 9.8,21.2 2.3,1.8 3.6,2 8.9,1.5 7.4,-0.6 11.5,-2.5 13,-5.9 1.5,-3.3 0.3,-3.8 -6.4,-2.4 -8.6,1.8 -16,-2 -18.6,-9.5 -1,-2.7 0.9,-3.2 13.3,-3.2 l 11.5,-0.1 -0.4,-5 c -0.4,-6.6 -2.3,-10 -6.2,-11.4 -3.8,-1.3 -4.7,-1.3 -11.9,0.3 z m 9.6,6.7 c 1.1,1.8 -1.3,3.2 -6.5,3.7 -5.6,0.5 -6.6,-0.6 -2.9,-3.2 2.6,-1.8 8.4,-2.1 9.4,-0.5 z"
       id="path34"
       style="fill:#000000;stroke:none;stroke-width:0.1" /><path
       d="m 861.9,856.2 c -0.9,1.6 -1,5.6 -0.4,14.7 1.1,15.7 1.1,19.8 0.1,28.7 -0.8,6.6 -0.7,7.5 1.7,12 5.3,10 7.8,22.8 8.6,44.1 0.4,11.1 1,17.6 1.8,18.4 1.7,1.7 4.6,0.3 3.9,-1.8 -0.3,-1 -0.5,-6.5 -0.5,-12.3 0,-5.8 -0.1,-13.2 -0.1,-16.6 -0.1,-8.5 4.8,-18.4 9.3,-18.4 1.5,0 1.8,0.5 1.3,2.4 -0.7,2.8 0.9,3.7 4.2,2.5 1.7,-0.7 2.2,-1.6 2.2,-4.4 0,-4.9 -2.9,-6.2 -9.6,-4.3 -4.4,1.2 -5.2,1.9 -7.7,6.6 -1.6,2.8 -3.2,5.2 -3.6,5.2 -1.5,0 -3.4,-10.3 -3.8,-20.4 -0.6,-12.6 0.9,-16.3 7.9,-20.6 2.6,-1.7 5.2,-3 5.6,-3 1.3,-0.1 4.8,-3.5 8,-7.9 3.8,-5.2 4.1,-9.8 1.3,-16.3 -2.8,-6.6 -5,-8 -14.9,-9.4 -12.2,-1.9 -13.9,-1.8 -15.3,0.8 z m 18.3,7.7 c 2.6,1 7.8,7.8 7.8,10.3 0,1.4 -5,6.8 -6.2,6.8 -0.5,0 -3.4,1.6 -6.5,3.6 -3,1.9 -6.1,3.3 -6.8,3.1 -1.3,-0.6 -4.5,-12.5 -4.5,-16.8 0,-3.3 3.3,-7.6 6.3,-8.2 2.7,-0.6 6.4,-0.2 9.9,1.2 z"
       id="path35"
       style="fill:#000000;stroke:none;stroke-width:0.1" /><path
       d="m 1002.6,855.8 c -0.3,0.5 -1,3.8 -1.7,7.5 -1,5.2 -1,7.8 -0.1,11.8 0.7,2.8 1.2,7.5 1.2,10.4 0,3 0.5,5.7 1,6 2.3,1.4 3.6,-1.6 3.8,-9 0.4,-9.7 1.2,-11.8 6.3,-15.5 8.4,-6 10.9,-3.5 11.6,11.7 0.5,10.9 1.6,13.9 4.8,12.7 1,-0.4 1.1,-3.5 0.8,-13.7 -0.6,-14.7 -1.4,-17 -6.5,-18.6 -1.8,-0.5 -5.1,-1.7 -7.3,-2.5 -4.3,-1.6 -13.1,-2.1 -13.9,-0.8 z"
       id="path36"
       style="fill:#000000;stroke:none;stroke-width:0.1" /><path
       d="m 1090.3,865.5 c 0,2.2 0.2,3 0.4,1.7 0.2,-1.2 0.2,-3 0,-4 -0.3,-0.9 -0.5,0.1 -0.4,2.3 z"
       id="path37"
       style="fill:#000000;stroke:none;stroke-width:0.1" /><path
       d="m 807.7,914.6 c -0.3,0.4 -0.4,2.5 -0.1,4.8 0.3,2.2 0.1,7.3 -0.4,11.3 -0.8,5.7 -0.7,8.2 0.4,12 0.9,2.9 1.3,6.4 0.9,8.7 -0.3,2.2 -0.3,7 0.1,10.8 l 0.7,6.8 h 3.3 c 3.9,0 4.3,-1.2 1.3,-3.3 -2.6,-1.9 -3.8,-7.1 -3.9,-16.3 0,-5.8 0.4,-7.4 2,-8.9 1.6,-1.5 2,-3 1.9,-8.4 -0.1,-3.6 -0.4,-9.1 -0.7,-12.1 -0.6,-4.5 -1.1,-5.6 -2.7,-5.8 -1.2,-0.2 -2.4,0 -2.8,0.4 z"
       id="path38"
       style="fill:#000000;stroke:none;stroke-width:0.1" /><path
       d="m 941.6,915.2 c -0.3,0.7 -0.7,4.7 -1.1,9 -0.5,7.3 -0.5,7.6 1.5,7.1 1.4,-0.4 2,0 2,1.1 0,2.4 1.7,1.9 2.3,-0.7 0.3,-1.2 0.2,-5.6 -0.2,-9.7 -0.5,-6 -0.9,-7.5 -2.4,-7.8 -0.9,-0.2 -1.9,0.2 -2.1,1 z"
       id="path39"
       style="fill:#000000;stroke:none;stroke-width:0.1" /><path
       d="m 675.6,919.7 c -0.3,1 -0.1,5.4 0.5,9.8 0.6,4.4 1.4,16.2 1.6,26.2 0.4,14.2 0.8,18.3 1.8,18.3 1.9,0 2.5,-2.3 2.6,-10.8 0.1,-4.2 0.4,-8.8 0.8,-10.2 0.7,-2.3 1.1,-2.5 6,-2.1 9.3,0.6 15.4,-0.7 18.9,-3.9 2.8,-2.6 3.2,-3.5 3.1,-8.2 0,-2.9 -0.8,-7.3 -1.7,-9.7 -2.5,-6.6 -6,-8.3 -19.1,-9.1 -5.8,-0.4 -11.3,-1 -12.3,-1.4 -1.1,-0.5 -1.8,-0.2 -2.2,1.1 z m 16.6,6.4 c 7.8,1.7 10.3,3.3 12.2,7.8 3.1,8 -1,11.6 -12.3,10.9 -8.1,-0.5 -9.1,-1.8 -9.1,-11.3 0,-4 0.3,-7.5 0.7,-7.8 0.9,-1 2.4,-0.9 8.5,0.4 z"
       id="path40"
       style="fill:#000000;stroke:none;stroke-width:0.1" /><path
       d="m 841.4,932.3 c -0.7,0.7 -3.5,3.1 -6.3,5.5 l -5,4.3 0.6,9.7 c 0.6,9.3 2,14.3 4.4,15.8 0.8,0.5 0.9,0.3 0.4,-0.5 -0.4,-0.7 -1.1,-4.3 -1.5,-7.9 -1.1,-8.7 0.3,-14.6 4.1,-17.5 1.6,-1.1 2.9,-2.7 2.9,-3.4 0,-1.2 3,-3.3 4.8,-3.3 0.6,0 3.7,2.7 6.9,6 6.2,6.4 9.3,7.6 9.3,3.7 0,-1.6 -2,-4.1 -6.4,-8 -5.1,-4.5 -7.1,-5.7 -9.8,-5.7 -1.8,0.1 -3.8,0.6 -4.4,1.3 z"
       id="path41"
       style="fill:#000000;stroke:none;stroke-width:0.1" /><path
       d="m 736.3,933.5 c -4.8,2.1 -12.1,9.2 -13.4,13.2 -2.3,7.1 0.6,14.2 8.9,22 5.9,5.6 14,3.6 20.5,-5.1 11.6,-15.3 0,-37.1 -16,-30.1 z m 11.3,6 c 2.6,1.6 5.4,7.4 5.4,11 0,3.4 -2.3,7.7 -6.7,12.6 -3.3,3.6 -3.9,3.9 -8.8,3.9 -5.8,0 -7.9,-1.5 -9.4,-6.8 -1.3,-4.3 0.2,-13.7 2.6,-17 4.2,-5.7 11.2,-7.3 16.9,-3.7 z"
       id="path42"
       style="fill:#000000;stroke:none;stroke-width:0.1" /><path
       d="m 773.1,935.3 c -2.5,0.9 -3.8,2.1 -4.7,4.7 -1.5,4.2 -1.9,29.6 -0.4,30.5 1.2,0.7 1.7,-1.9 2.5,-12.5 0.8,-11.1 1.9,-15.8 4.2,-17.5 1.2,-1 4.8,-1.4 11.5,-1.5 10.4,0 12.8,-0.5 12.8,-2.5 0,-0.7 -0.7,-1.6 -1.6,-1.9 -2.7,-1.1 -20.8,-0.5 -24.3,0.7 z"
       id="path43"
       style="fill:#000000;stroke:none;stroke-width:0.1" /><path
       d="m 964.3,939.1 c -5.1,2.2 -7.3,3.6 -7.3,4.8 0,3 1.3,3.2 3.9,0.8 1.6,-1.5 5.5,-3.1 10,-4.1 6.9,-1.7 7.6,-1.7 11.7,-0.1 5.5,2.1 6.4,3.7 6.4,12.1 0,6.6 -0.1,6.8 -4.1,10.5 -5.9,5.4 -11.5,6.2 -16.1,2.1 -2.7,-2.3 -2.2,-0.6 0.8,2.7 4.7,5.4 11.1,4.8 17.6,-1.6 l 3.8,-3.7 v -8.7 c 0,-4.7 -0.5,-10 -1.1,-11.8 -2.4,-6.9 -13.4,-8.2 -25.6,-3 z"
       id="path44"
       style="fill:#000000;stroke:none;stroke-width:0.1" /><path
       d="m 906.1,940.8 c -0.5,1 -2.1,2.4 -3.5,3.2 -2.4,1.2 -2.6,1.9 -2.6,7.4 0,6.9 2.2,12.7 6.5,16.8 2.2,2.2 3.7,2.8 6.9,2.7 8.2,-0.1 19.6,-6.7 19.6,-11.4 0,-1.4 -0.4,-2.5 -0.8,-2.5 -0.4,0 -3.2,2.3 -6.1,5 -5.9,5.5 -8.4,6.5 -13.5,5.6 -6,-1.1 -11.8,-10.7 -10.2,-16.9 1.3,-5.4 13,-8.7 22.4,-6.4 4.6,1.2 4.1,-0.8 -0.8,-3.3 -5.3,-2.7 -16.5,-2.9 -17.9,-0.2 z"
       id="path45"
       style="fill:#000000;stroke:none;stroke-width:0.1" /><path
       d="m 947.2,944 c 0,1.4 0.2,1.9 0.5,1.2 0.2,-0.6 0.2,-1.8 0,-2.5 -0.3,-0.6 -0.5,-0.1 -0.5,1.3 z"
       id="path46"
       style="fill:#000000;stroke:none;stroke-width:0.1" /><path
       d="m 888.5,946 c -1.6,0.7 -1.3,0.9 1.5,0.9 1.9,0 4.4,-0.4 5.5,-0.9 1.6,-0.7 1.3,-0.9 -1.5,-0.9 -1.9,0 -4.4,0.4 -5.5,0.9 z"
       id="path47"
       style="fill:#000000;stroke:none;stroke-width:0.1" /><path
       d="m 946.6,954.1 c -0.8,7.8 -0.2,13.9 1.5,13.9 1,0 1,-14 0,-18.5 -0.6,-2.4 -0.9,-1.5 -1.5,4.6 z"
       id="path48"
       style="fill:#000000;stroke:none;stroke-width:0.1" /><path
       d="m 959,951.3 c 0,2.4 5.9,12.2 6.8,11.3 0.2,-0.3 -0.3,-2.1 -1.2,-4 -0.9,-1.9 -1.6,-4.1 -1.6,-4.9 0,-2.6 -1.2,-4.7 -2.6,-4.7 -0.8,0 -1.4,1 -1.4,2.3 z"
       id="path49"
       style="fill:#000000;stroke:none;stroke-width:0.1" /><path
       d="m 857.3,954.2 c -1.8,2.2 -5.5,10 -5,10.5 0.9,0.8 6.6,-2.7 7.7,-4.8 2.1,-3.9 -0.2,-8.8 -2.7,-5.7 z"
       id="path50"
       style="fill:#000000;stroke:none;stroke-width:0.1" /><path
       d="m 1087.7,985 c -1.8,4.9 -1.4,56.7 0.4,53.8 0.5,-0.7 0.9,-4.5 0.9,-8.3 0,-3.9 0.5,-7.6 1.1,-8.2 1.5,-1.5 1.1,-25.3 -0.5,-32.8 -0.7,-3.3 -1.6,-5.3 -1.9,-4.5 z"
       id="path51"
       style="fill:#000000;stroke:none;stroke-width:0.1" /><path
       d="m 640,1053.6 c -0.8,0.1 -4.1,0.6 -7.4,0.9 -9.8,1.1 -5,2.6 9,2.8 7.1,0 20.1,-0.3 28.9,-0.7 l 16,-0.9 -7,-1.3 c -6.1,-1.1 -35.4,-1.7 -39.5,-0.8 z"
       id="path52"
       style="fill:#000000;stroke:none;stroke-width:0.1" /></g><g
     inkscape:groupmode="layer"
     id="layer3"
     inkscape:label="mouse"
     sodipodi:insensitive="true"
     style="display:none"><path
       d="m 172,941.5 c -13,1.8 -29.9,8.7 -41.1,16.7 -13.1,9.3 -23.5,22.7 -34.3,44.4 -9.5,19 -10.5,24.4 -11.6,58.8 -2.1,65.9 -0.9,92.6 5,108.6 5.8,16.1 17.8,32.8 31.3,43.8 3.6,2.8 6.7,5.2 7,5.2 0.3,0 2.9,1.6 5.8,3.6 7,4.7 21.5,11.8 28.2,13.8 15.5,4.6 39.1,5.9 53.9,3 9.8,-2 17.3,-5.2 28.8,-12.4 26.4,-16.5 40,-32.9 48.7,-58.5 6.8,-19.8 6.5,-16.7 6,-75 -0.3,-43.9 -0.7,-54.3 -2,-60.5 -4.9,-22.6 -13.8,-39.9 -30.1,-58.5 -9.9,-11.3 -15.3,-16 -25.3,-21.9 -11.4,-6.6 -23.1,-10.1 -38.6,-11.5 -15.1,-1.3 -20.4,-1.3 -31.7,0.4 z m 38.8,15.6 c 20.1,4.8 33.3,14 51,35.4 8.1,10 16.3,25.8 19.8,38.5 0.8,3 1.8,12.1 2.1,20.2 l 0.6,14.7 -2.4,0.6 c -1.4,0.3 -42.1,0.5 -90.6,0.3 -69,-0.2 -88.5,-0.6 -89.5,-1.6 -4.3,-4.3 0.4,-40.8 7.1,-54.2 3.9,-8 13.7,-22.4 18.3,-27 12.4,-12.4 30.9,-23 46.8,-26.9 10.9,-2.6 25.9,-2.7 36.8,0 z m -27.3,146.1 c 0,21.9 0.1,22.8 2.1,24.9 2.4,2.3 10,3.6 12.2,2.1 1.1,-0.7 1.3,-5.8 1.2,-23.4 0,-17.2 0.2,-22.7 1.2,-23.5 0.8,-0.5 17.3,-0.9 41.8,-0.9 l 40.5,0.1 0.3,30.3 c 0.2,29.8 0.2,30.5 -2.4,41 -4.7,19.3 -13.8,35.1 -26.2,46 -20.1,17.4 -36.6,24.2 -58.7,24.2 -11.6,0 -15.4,-0.7 -29.6,-4.9 -7.5,-2.3 -20.7,-9.6 -30.5,-16.8 -13.7,-10.2 -22.7,-22.2 -29,-39 -5,-13.2 -5.7,-19 -6.1,-50.4 -0.5,-28 -0.4,-29.7 1.4,-30.5 1.5,-0.6 63.1,-2.2 77.8,-2 l 4,0.1 z"
       id="path59"
       style="display:inline;opacity:1;fill:#000000;stroke:none;stroke-width:0.1" /><path
       d="m 184.1,977.1 c -9,4.8 -12,10.3 -12.8,23.6 -1,17.6 1.9,29 9.3,36.6 3.5,3.6 3.8,3.7 10.8,3.7 6.5,0 7.5,-0.3 10.8,-3 2,-1.7 4.8,-5.5 6.2,-8.5 2.4,-4.9 2.6,-6.5 2.6,-17.7 0,-19.7 -4.2,-28.8 -15.5,-34.2 -6.4,-3 -6.8,-3 -11.4,-0.5 z"
       id="path60"
       style="display:inline;opacity:1;fill:#000000;stroke:none;stroke-width:0.1" /><path
       d="m 2792,962.7 c -13.8,1.9 -19.7,3.6 -30,8.5 -15,7.3 -27.8,18 -40.3,33.7 -4.1,5.2 -9,14.4 -12.5,23.6 -7.7,20.4 -8.2,25.1 -8.2,71.9 0.1,40.7 0.8,49.7 5.3,65.4 3.5,12 13.1,28.8 22.5,39.3 10.3,11.5 35.4,27.2 49.7,31.1 3.3,0.9 11.7,2.2 18.8,2.9 22.9,2.3 38.2,-1.5 59,-14.8 20.5,-13 36.3,-32 43.9,-52.8 6.1,-16.5 6,-16 5.5,-65.6 -0.3,-36.4 -0.7,-47.5 -2.1,-55.8 -2.7,-16.9 -6.6,-26.7 -17.3,-44.3 -12.2,-20.1 -23.3,-29.7 -43,-37.3 -10.7,-4.2 -11.2,-4.3 -23,-5.9 -13,-1.9 -14.4,-1.9 -28.3,0.1 z m 33.2,16.9 c 10.5,2.5 19.1,6.6 28.6,13.5 7.9,5.8 13.6,12.5 20.7,24.4 6.9,11.5 10.2,20.3 12.6,33.5 1.6,9.2 1.9,15.8 1.9,54.4 0,36.6 -0.3,45.3 -1.6,52 -4.8,23.6 -22.4,45.3 -45.5,55.9 -15.7,7.2 -23.6,9.1 -38.9,9.1 -10.1,0 -13.7,-0.4 -18.5,-2.1 -12.4,-4.3 -30.8,-14.7 -38.4,-21.7 -5.5,-5.1 -17.5,-21.7 -21.4,-29.7 -6.7,-13.8 -7.2,-18.2 -7.2,-64.4 0,-49.6 1,-59.1 7.5,-72.3 1.1,-2.3 2.5,-5.2 3,-6.5 0.6,-1.2 1.4,-2.9 1.9,-3.7 0.4,-0.8 1.6,-3.1 2.6,-5 2.8,-5.3 10.8,-14.2 17.2,-19.1 3.2,-2.4 6,-4.6 6.3,-4.9 2.6,-3 20,-11.5 25.9,-12.9 2.4,-0.5 4.5,-1.2 4.8,-1.5 1.4,-1.4 32.2,-0.6 38.5,1 z"
       id="path61"
       style="display:inline;opacity:1;fill:#000000;stroke:none;stroke-width:0.1" /><path
       d="m 2798.7,1011 c -4,1.2 -9.4,5.6 -12.1,9.8 -4.4,6.9 -5.6,23.5 -2.5,34.6 1.5,5.4 8,12.1 13.6,14 12,4.1 22.8,-0.4 27,-11.3 2.2,-5.5 2.4,-27 0.4,-33.9 -1.6,-5.6 -7.3,-11.9 -11.9,-13.2 -4.3,-1.2 -10.6,-1.2 -14.5,0 z"
       id="path62"
       style="display:inline;opacity:1;fill:#000000;stroke:none;stroke-width:0.1" /></g><g
     inkscape:groupmode="layer"
     id="layer4"
     inkscape:label="PC"><rect
       style="fill:#ffffff;stroke:#241f31;stroke-width:11.33858268;stroke-dasharray:none"
       id="rect55"
       width="611.54755"
       height="159.70345"
       x="94.569427"
       y="242.37361"
       ry="20.606897"
       inkscape:export-filename="rect55.png"
       inkscape:export-xdpi="1200"
       inkscape:export-ydpi="1200" /><path
       id="rect56"
       style="fill:#ffffff;stroke:#241f31;stroke-width:5.88443"
       d="m 55.73462,406.25951 h 692.25257 c 3.03541,12.77941 -21.24805,17.9642 -21.24805,17.9642 H 76.98266 c 0,0 -30.354341,-3.90687 -21.24804,-17.9642 z"
       sodipodi:nodetypes="ccccc" /><path
       id="rect57"
       style="fill:#ffffff;stroke:#241f31;stroke-width:5.88443"
       d="m 321.44859,405.0294 h 148.68292 c 3.03544,12.77938 -18.21258,10.20101 -18.21258,10.20101 H 336.62576 c 0,0 -22.76577,0.66148 -15.17717,-10.20101 z"
       sodipodi:nodetypes="ccccc" /><text
       xml:space="preserve"
       style="font-size:35px;font-family:Arial;-inkscape-font-specification:'Arial, Normal';fill:#ffffff;stroke:#000000;stroke-width:3.36229;stroke-dasharray:none"
       x="400.41739"
       y="288.49155"
       id="text57"><tspan
         sodipodi:role="line"
         id="tspan57"
         style="font-style:normal;font-variant:normal;font-weight:bold;font-stretch:normal;font-size:35px;font-family:'BIZ UDPGothic';-inkscape-font-specification:'BIZ UDPGothic';text-align:center;text-anchor:middle;fill:#241f31;stroke:none;stroke-width:3.36229"
         x="400.41739"
         y="288.49155">開発ツール一覧</tspan><tspan
         sodipodi:role="line"
         style="font-style:normal;font-variant:normal;font-weight:bold;font-stretch:normal;font-size:35px;font-family:'BIZ UDPGothic';-inkscape-font-specification:'BIZ UDPGothic';text-align:center;text-anchor:middle;fill:#241f31;stroke:none;stroke-width:3.36229"
         x="400.41739"
         y="335.88605"
         id="tspan60">LARC-Tools</tspan><tspan
         sodipodi:role="line"
         style="font-style:normal;font-variant:normal;font-weight:bold;font-stretch:normal;font-size:35px;font-family:'BIZ UDPGothic';-inkscape-font-specification:'BIZ UDPGothic';text-align:center;text-anchor:middle;fill:#241f31;stroke:none;stroke-width:3.36229"
         x="400.41739"
         y="379.63605"
         id="tspan61" /></text><text
       xml:space="preserve"
       style="font-size:18px;font-family:Arial;-inkscape-font-specification:'Arial, Normal';fill:#ffffff;stroke:#000000;stroke-width:3.36229;stroke-dasharray:none"
       x="400.72549"
       y="362.93872"
       id="text58"><tspan
         sodipodi:role="line"
         id="tspan58"
         style="font-style:normal;font-variant:normal;font-weight:normal;font-stretch:normal;font-size:18px;font-family:'BIZ UDPGothic';-inkscape-font-specification:'BIZ UDPGothic';text-align:center;text-anchor:middle;fill:#241f31;stroke:none;stroke-width:3.36229"
         x="400.72549"
         y="362.93872">筑波大学生命科学動物資源センター</tspan><tspan
         sodipodi:role="line"
         style="font-style:normal;font-variant:normal;font-weight:normal;font-stretch:normal;font-size:18px;font-family:'BIZ UDPGothic';-inkscape-font-specification:'BIZ UDPGothic';text-align:center;text-anchor:middle;fill:#241f31;stroke:none;stroke-width:3.36229"
         x="400.72549"
         y="387.31302"
         id="tspan59">Laboratory Animal Resource Center, University of Tsukuba</tspan></text><rect
       style="opacity:0.305556;fill:none;stroke-width:11.3386;stroke-dasharray:none"
       id="rect1"
       width="764.4834"
       height="377.01575"
       x="29.116066"
       y="88.094765"
       ry="16.424448" /></g><g
     inkscape:groupmode="layer"
     id="layer2"
     inkscape:label="Mouse-header"
     style="display:inline"><ellipse
       style="fill:#ffffff;stroke:#241f31;stroke-width:4.48305;stroke-dasharray:none"
       id="path63"
       cx="330.56125"
       cy="149.48267"
       rx="39.10471"
       ry="39.525185" /><ellipse
       style="fill:#ffffff;stroke:#241f31;stroke-width:4.48305;stroke-dasharray:none"
       id="ellipse63"
       cx="471.7774"
       cy="149.48267"
       rx="39.10471"
       ry="39.525185" /><path
       id="ellipse64"
       style="fill:#ffffff;stroke:#241f31;stroke-width:5.01026"
       d="m 469.33682,198.80352 c 0,27.99249 -21.07886,41.4549 -67.31261,41.8467 -38.37822,0.32522 -69.13248,-6.90034 -70.12478,-41.8467 0,-27.99248 25.89766,-61.53175 69.72304,-61.53175 37.39762,0 67.71435,33.53927 67.71435,61.53175 z"
       sodipodi:nodetypes="sssss" /><ellipse
       style="fill:none;stroke:#241f31;stroke-width:3.36229;stroke-dasharray:none"
       id="ellipse1"
       cx="367.82431"
       cy="193.27188"
       rx="10.917763"
       ry="9.8296776" /><ellipse
       style="fill:#ffffff;stroke:#241f31;stroke-width:3.97075;stroke-dasharray:none"
       id="ellipse3"
       cx="372.13229"
       cy="241.32274"
       rx="14.249062"
       ry="10.504238" /><ellipse
       style="fill:#ffffff;stroke:#241f31;stroke-width:3.76341;stroke-dasharray:none"
       id="ellipse4"
       cx="427.61328"
       cy="241.32274"
       rx="12.674789"
       ry="10.607904" /><path
       d="m 398.49308,190.6331 c -1.70356,0.76212 -2.17428,3.07089 -0.91902,4.48305 0.87419,1.03111 0.98627,1.38975 0.65004,2.21912 -0.42589,0.98627 -1.36733,1.81563 -2.57776,2.28635 -1.27767,0.49314 -2.19669,0.20174 -3.60886,-1.12076 -0.71728,-0.67246 -1.30008,-1.00869 -1.92771,-1.12076 -1.23284,-0.17933 -1.54665,0.20173 -1.34491,1.72597 0.38106,2.75708 2.57775,4.46064 5.78313,4.46064 1.52424,0 2.55534,-0.40347 3.67611,-1.47941 1.41216,-1.30008 1.41216,-1.30008 3.25021,-0.13449 2.60017,1.68115 4.05717,1.97254 6.34352,1.27767 1.47941,-0.4483 2.46568,-1.25525 3.27263,-2.645 0.82937,-1.45699 0.8742,-2.57776 0.15691,-3.25021 -0.89661,-0.85178 -1.6139,-0.65005 -2.95882,0.78453 -1.21042,1.30009 -1.21042,1.30009 -2.44326,1.27767 -1.07593,-0.0224 -1.38975,-0.15691 -2.24153,-0.82936 -0.53796,-0.44831 -1.09835,-1.14318 -1.27767,-1.52424 -0.26898,-0.67246 -0.24657,-0.80695 0.31382,-1.81564 0.76212,-1.36733 0.76212,-2.30877 0.0224,-3.40712 -0.91902,-1.3225 -2.71225,-1.83805 -4.16924,-1.18801 z"
       id="path7"
       style="fill:#000000;stroke:none;stroke-width:0.0224153" /><path
       d="m 449.19642,196.0576 c -0.31382,0.1569 -0.82937,0.35864 -1.1656,0.42589 -0.31381,0.0672 -0.89661,0.40347 -1.27767,0.71728 -0.62763,0.51556 -0.69487,0.69488 -0.69487,1.88289 0,0.98627 0.0897,1.3225 0.35864,1.43457 0.69488,0.26899 7.32979,-0.11207 8.27124,-0.47072 1.05351,-0.38106 1.23284,-0.60521 1.23284,-1.52423 0,-0.85179 -0.62763,-1.81564 -1.54666,-2.37602 -0.89661,-0.53797 -4.28131,-0.60522 -5.17792,-0.0897 z"
       id="path8"
       style="fill:#000000;stroke:none;stroke-width:0.0224153" /><path
       d="m 444.69095,204.39608 c -0.44831,0.11207 -0.8742,1.00868 -0.8742,1.83805 0,1.34491 0.8742,2.08462 4.52789,3.87784 0.22415,0.0897 0.62762,0.17932 0.91902,0.17932 0.2914,0 0.62763,0.11208 0.78454,0.26898 0.13449,0.1345 0.7397,0.33623 1.3225,0.44831 0.58279,0.11208 1.36733,0.26898 1.70356,0.33623 1.38974,0.26898 3.74335,-1.21043 3.74335,-2.35361 0,-0.42589 -0.82937,-1.30008 -1.79323,-1.90529 -0.51555,-0.33623 -3.69851,-1.43458 -6.6125,-2.26394 -1.18801,-0.35865 -3.11572,-0.56039 -3.72093,-0.42589 z"
       id="path10"
       style="fill:#000000;stroke:none;stroke-width:0.0224153" /><path
       d="m 350.54683,204.8668 c -0.42589,0.20173 -1.56907,0.71728 -2.51051,1.14317 -2.98123,1.3225 -4.07958,1.92772 -4.14683,2.30878 -0.0897,0.49313 1.25526,1.97254 2.12945,2.33118 1.0311,0.44831 1.77081,0.40348 4.34856,-0.26898 2.75708,-0.71729 4.12441,-1.30008 4.8417,-2.0622 0.42589,-0.44831 0.51555,-0.80695 0.51555,-1.92772 0,-0.78453 -0.11207,-1.50182 -0.26898,-1.65873 -0.42589,-0.42589 -3.92267,-0.31381 -4.90894,0.1345 z"
       id="path11"
       style="fill:#000000;stroke:none;stroke-width:0.0224153" /><path
       d="m 344.29297,196.0576 c -0.31382,0.1569 -0.82937,0.35864 -1.1656,0.42589 -0.31381,0.0672 -0.89661,0.40347 -1.27767,0.71728 -0.62763,0.51556 -0.69487,0.69488 -0.69487,1.88289 0,0.98627 0.0897,1.3225 0.35864,1.43457 0.69488,0.26899 7.3298,-0.11207 8.27124,-0.47072 1.05351,-0.38106 1.23284,-0.60521 1.23284,-1.52423 0,-0.85179 -0.62763,-1.81564 -1.54666,-2.37602 -0.89661,-0.53797 -4.28131,-0.60522 -5.17792,-0.0897 z"
       id="path53"
       style="fill:#000000;stroke:none;stroke-width:0.0224153" /><path
       d="m 365.02709,183.70678 c -3.18297,1.18801 -5.1331,2.86916 -6.43318,5.55899 -0.80695,1.63631 -0.85178,1.83805 -0.85178,3.92267 0,3.29505 0.94144,5.40208 3.3847,7.53153 2.39844,2.08462 6.09695,3.20538 8.67471,2.62259 2.44326,-0.56038 4.95377,-2.03979 6.38835,-3.76577 3.18297,-3.81059 3.09331,-9.21267 -0.20174,-13.00085 -2.57775,-2.95882 -7.39703,-4.21407 -10.96106,-2.86916 z m 0.26898,2.60017 c 0.35865,0.69488 0.38106,2.39844 0.0448,3.33988 -0.49313,1.38975 -1.88288,1.54665 -3.02606,0.33623 -1.23284,-1.27767 -0.94144,-2.62259 0.78453,-3.8106 0.98628,-0.67246 1.81564,-0.62762 2.1967,0.13449 z"
       id="path54"
       style="fill:#000000;stroke:none;stroke-width:0.0224153" /><ellipse
       style="fill:none;stroke:#241f31;stroke-width:3.36229;stroke-dasharray:none"
       id="ellipse55"
       cx="429.69046"
       cy="193.27188"
       rx="10.917763"
       ry="9.8296776" /><path
       d="m 426.89322,183.70678 c -3.18296,1.18801 -5.13309,2.86916 -6.43318,5.55899 -0.80695,1.63631 -0.85178,1.83805 -0.85178,3.92267 0,3.29505 0.94144,5.40208 3.38471,7.53153 2.39843,2.08462 6.09695,3.20538 8.67471,2.62259 2.44326,-0.56038 4.95377,-2.03979 6.38835,-3.76577 3.18297,-3.81059 3.0933,-9.21267 -0.20174,-13.00085 -2.57776,-2.95882 -7.39704,-4.21407 -10.96107,-2.86916 z m 0.26899,2.60017 c 0.35864,0.69488 0.38106,2.39844 0.0448,3.33988 -0.49314,1.38975 -1.88288,1.54665 -3.02606,0.33623 -1.23284,-1.27767 -0.94144,-2.62259 0.78453,-3.8106 0.98627,-0.67246 1.81564,-0.62762 2.1967,0.13449 z"
       id="path55"
       style="fill:#000000;stroke:none;stroke-width:0.0224153" /></g></svg>
